<svg width="270" height="270" viewBox="0 0 270 270" fill="none" xmlns="http://www.w3.org/2000/svg">
<g clip-path="url(#clip0_323_1873)">
<rect width="270" height="270" fill="#FDFBF7"/>
<path d="M90.4461 189C80.0461 189 70.3794 187.267 61.4461 183.8C52.6461 180.2 44.9128 175.2 38.2461 168.8C31.7128 162.267 26.6461 154.733 23.0461 146.2C19.4461 137.533 17.6461 128.133 17.6461 118C17.6461 107.867 19.4461 98.5333 23.0461 90C26.6461 81.3333 31.7128 73.8 38.2461 67.4C44.9128 60.8667 52.6461 55.8667 61.4461 52.4C70.3794 48.8 80.0461 47 90.4461 47C100.846 47 110.446 48.8 119.246 52.4C128.179 55.8667 135.913 60.8 142.446 67.2C148.979 73.6 154.046 81.1333 157.646 89.8C161.379 98.3333 163.246 107.733 163.246 118C163.246 128.267 161.379 137.733 157.646 146.4C154.046 154.933 148.979 162.4 142.446 168.8C135.913 175.2 128.179 180.2 119.246 183.8C110.446 187.267 100.846 189 90.4461 189ZM90.4461 179.6C99.3794 179.6 107.646 178.067 115.246 175C122.846 171.933 129.446 167.6 135.046 162C140.646 156.4 144.979 149.867 148.046 142.4C151.246 134.933 152.846 126.8 152.846 118C152.846 109.067 151.246 100.933 148.046 93.6C144.979 86.1333 140.646 79.6 135.046 74C129.446 68.4 122.846 64.0667 115.246 61C107.646 57.9333 99.3794 56.4 90.4461 56.4C81.5128 56.4 73.2461 57.9333 65.6461 61C58.0461 64.0667 51.3794 68.4 45.6461 74C40.0461 79.6 35.6461 86.1333 32.4461 93.6C29.3794 100.933 27.8461 109.067 27.8461 118C27.8461 126.8 29.3794 134.933 32.4461 142.4C35.6461 149.867 40.0461 156.4 45.6461 162C51.3794 167.6 58.0461 171.933 65.6461 175C73.2461 178.067 81.5128 179.6 90.4461 179.6Z" fill="#232323"/>
<path d="M113.96 227L178.36 87H188.56L252.96 227H241.96L181.16 93.4H185.56L124.96 227H113.96ZM137.56 187.6L140.96 179H224.76L228.16 187.6H137.56Z" fill="#232323"/>
</g>
<defs>
<clipPath id="clip0_323_1873">
<rect width="270" height="270" fill="white"/>
</clipPath>
</defs>
</svg>
