<?xml version="1.0" encoding="utf-8"?>
<!-- Generator: Adobe Illustrator 27.5.0, SVG Export Plug-In . SVG Version: 6.00 Build 0)  -->
<svg version="1.1" baseProfile="tiny" id="Слой_2"
	 xmlns="http://www.w3.org/2000/svg" xmlns:xlink="http://www.w3.org/1999/xlink" x="0px" y="0px" viewBox="0 0 123.97 82.52"
	 overflow="visible" xml:space="preserve">
<g>
	<path fill="none" stroke="#000000" stroke-width="0.75" stroke-miterlimit="10" d="M54.73,12.71C62.02,5.12,72.2,0.4,83.46,0.4
		c22.17,0,40.14,18.28,40.14,40.83s-17.97,40.83-40.14,40.83c-10.99,0-20.94-4.49-28.19-11.77"/>
	<g>
		<g>
			<path d="M5.89,46.48c-0.84,0-1.62-0.14-2.34-0.42c-0.72-0.28-1.34-0.68-1.87-1.2c-0.53-0.52-0.94-1.12-1.23-1.81
				C0.15,42.36,0,41.61,0,40.78s0.15-1.58,0.44-2.26c0.29-0.69,0.7-1.29,1.23-1.81c0.53-0.52,1.15-0.92,1.86-1.2
				c0.71-0.28,1.5-0.42,2.35-0.42c0.84,0,1.62,0.14,2.34,0.42c0.71,0.28,1.34,0.68,1.86,1.19c0.53,0.51,0.94,1.11,1.23,1.81
				s0.44,1.45,0.44,2.27s-0.15,1.58-0.44,2.27s-0.7,1.3-1.23,1.81c-0.53,0.51-1.15,0.91-1.86,1.19C7.51,46.34,6.73,46.48,5.89,46.48
				z M5.89,45.42c0.67,0,1.29-0.11,1.86-0.34c0.57-0.23,1.07-0.55,1.49-0.98c0.42-0.42,0.75-0.91,0.98-1.47
				c0.23-0.56,0.35-1.18,0.35-1.85c0-0.67-0.12-1.29-0.35-1.85c-0.23-0.56-0.56-1.05-0.98-1.47c-0.42-0.42-0.92-0.75-1.49-0.98
				c-0.57-0.23-1.19-0.34-1.86-0.34c-0.67,0-1.3,0.12-1.87,0.34c-0.58,0.23-1.08,0.56-1.5,0.98c-0.43,0.42-0.76,0.91-0.99,1.47
				c-0.23,0.56-0.35,1.18-0.35,1.85c0,0.66,0.12,1.27,0.35,1.84c0.23,0.57,0.57,1.06,0.99,1.48c0.43,0.42,0.93,0.75,1.5,0.98
				C4.59,45.31,5.22,45.42,5.89,45.42z"/>
			<path d="M15.62,46.38v-11.2h1.18v10.18h6.27v1.02H15.62z"/>
			<path d="M27.42,45.36h6.74v1.02h-7.92v-11.2h7.68v1.02h-6.5V45.36z M27.3,40.19h5.92v1.01H27.3V40.19z"/>
			<path d="M36.35,46.38l5.12-11.2h1.17l5.12,11.2h-1.25l-4.7-10.51h0.48l-4.7,10.51H36.35z M38.37,43.39l0.35-0.96h6.51l0.35,0.96
				H38.37z"/>
			<path d="M50.82,46.38v-11.2h0.98l7.73,9.73h-0.51v-9.73h1.17v11.2H59.2l-7.71-9.73H52v9.73H50.82z"/>
			<path d="M65.02,46.38v-11.2h4.56c1.19,0,2.24,0.24,3.14,0.71s1.6,1.13,2.1,1.98s0.75,1.81,0.75,2.91s-0.25,2.07-0.75,2.91
				c-0.5,0.84-1.2,1.5-2.1,1.98s-1.95,0.71-3.14,0.71H65.02z M66.21,45.36h3.31c0.99,0,1.85-0.19,2.58-0.58
				c0.73-0.39,1.3-0.93,1.7-1.62c0.41-0.69,0.61-1.48,0.61-2.38c0-0.91-0.2-1.7-0.61-2.38c-0.41-0.68-0.97-1.22-1.7-1.61
				c-0.73-0.39-1.59-0.58-2.58-0.58h-3.31V45.36z"/>
			<path d="M79.44,46.38v-11.2h4.19c0.95,0,1.77,0.15,2.45,0.46s1.21,0.74,1.58,1.31c0.37,0.57,0.55,1.26,0.55,2.07
				c0,0.79-0.18,1.47-0.55,2.04c-0.37,0.57-0.89,1.01-1.58,1.31s-1.5,0.46-2.45,0.46H80.1l0.53-0.54v4.1H79.44z M80.62,42.38
				l-0.53-0.56h3.5c1.12,0,1.97-0.25,2.55-0.74c0.58-0.49,0.87-1.18,0.87-2.06c0-0.9-0.29-1.59-0.87-2.08
				c-0.58-0.49-1.43-0.74-2.55-0.74h-3.5l0.53-0.56V42.38z M87.09,46.38l-2.88-4.06h1.28l2.9,4.06H87.09z"/>
			<path d="M92.21,46.38v-11.2h1.18v11.2H92.21z"/>
			<path d="M96.45,46.38l5.12-11.2h1.17l5.12,11.2h-1.25l-4.7-10.51h0.48l-4.7,10.51H96.45z M98.46,43.39l0.35-0.96h6.51l0.35,0.96
				H98.46z"/>
		</g>
	</g>
	<g>
		<g>
		</g>
	</g>
	<circle fill="none" stroke="#000000" stroke-width="0.75" stroke-miterlimit="10" cx="79.8" cy="18.8" r="4.64"/>
	<line fill="none" stroke="#000000" stroke-width="0.75" stroke-miterlimit="10" x1="0" y1="58.69" x2="47.08" y2="58.81"/>
</g>
</svg>
