<svg width="63" height="63" viewBox="0 0 63 63" fill="none" xmlns="http://www.w3.org/2000/svg">
<circle cx="31.5" cy="31.5" r="31" stroke="#232323"/>
<path d="M19.996 43V24.316H21.184V43H19.996ZM20.572 19.42C20.26 19.42 19.984 19.3 19.744 19.06C19.504 18.82 19.384 18.556 19.384 18.268C19.384 17.932 19.504 17.656 19.744 17.44C19.984 17.2 20.26 17.08 20.572 17.08C20.908 17.08 21.184 17.2 21.4 17.44C21.64 17.656 21.76 17.92 21.76 18.232C21.76 18.544 21.64 18.82 21.4 19.06C21.184 19.3 20.908 19.42 20.572 19.42ZM37.9918 24.172C39.5278 24.172 40.8478 24.472 41.9518 25.072C43.0798 25.672 43.9558 26.56 44.5798 27.736C45.2038 28.888 45.5158 30.316 45.5158 32.02V43H44.3278V32.092C44.3278 29.86 43.7638 28.168 42.6358 27.016C41.5078 25.864 39.9238 25.288 37.8838 25.288C36.3238 25.288 34.9798 25.6 33.8518 26.224C32.7238 26.848 31.8598 27.736 31.2598 28.888C30.6598 30.04 30.3598 31.384 30.3598 32.92V43H29.1718V24.316H30.3238V29.572L30.1798 29.248C30.7558 27.688 31.7038 26.452 33.0238 25.54C34.3678 24.628 36.0238 24.172 37.9918 24.172Z" fill="#232323"/>
</svg>
